<?xml version="1.0" encoding="UTF-8"?>
<!DOCTYPE svg PUBLIC "-//W3C//DTD SVG 1.1//EN" "http://www.w3.org/Graphics/SVG/1.1/DTD/svg11.dtd">
<svg version="1.1" xmlns="http://www.w3.org/2000/svg" xmlns:xlink="http://www.w3.org/1999/xlink" x="0" y="0" width="296" height="433" viewBox="0, 0, 296, 433">
  <g id="Layer_1">
    <path d="M296.755,287.783 C295.771,256.111 270.249,211.985 258.062,188.554 C247.577,168.362 188.938,22.364 217.165,0.871 C215.299,2.266 88.024,99.105 35.865,183.726 L26.674,200.095 C17.484,216.464 -35.204,317.362 39.578,391.602 C72.183,423.971 107.801,432.129 162.904,432.129 C191.183,432.13 300.455,407.408 296.755,287.783 z" fill="#2390DE"/>
    <path d="M289.26,271.19 C290.963,271.427 290.197,271.324 291.558,271.504 C294.107,271.802 292.725,271.554 294.573,271.703 C296.916,282.636 297.123,294.056 296.314,305.165 C294.439,330.919 286.874,356.396 270.818,377.236 C253.906,399.188 230.123,414.475 204.365,423.663 C191.234,428.347 176.836,431.942 162.84,432.129 C107.737,432.129 72.162,424.333 39.558,391.602 C24.025,376.063 11.883,356.949 5.521,335.767 C-0.508,315.9 -1.12,294.54 1.39,274.019 L1.395,274.02 C4.069,274.228 6.772,274.219 9.744,274.017 C9.89,273.992 10.044,273.995 10.182,273.942 C10.923,273.579 10.635,273.802 11.098,273.343 C12.743,273.273 12.004,273.305 13.314,273.249 C14.708,273.189 14.186,273.212 14.88,273.182 C15.242,273.673 15.831,273.796 16.397,273.853 C20.395,273.836 24.389,273.639 28.381,273.416 C32.208,273.115 30.153,273.225 34.549,273.133 C34.973,273.636 35.582,273.745 36.199,273.76 C39.025,273.54 41.809,273.48 46.146,273.497 C46.626,273.499 47.011,273.501 47.875,273.505 C49.549,273.388 51.168,273.893 52.812,273.557 C54.115,273.579 53.392,273.567 54.979,273.593 C55.835,273.455 55.408,273.593 56.245,273.143 C66.818,273.427 77.395,273.452 87.97,273.444 C89.792,273.442 91.248,273.439 94.529,273.433 C99.573,273.423 101.817,273.42 104.621,273.42 C105.238,273.436 105.664,273.162 106.066,272.73 C107.354,272.768 108.643,272.807 109.931,272.847 C114.187,272.976 118.442,273.106 122.698,273.215 C130.214,273.409 136.479,273.507 142.517,273.507 C143.077,273.511 143.586,273.289 143.977,272.893 C154.251,272.825 148.752,272.926 160.475,272.529 C160.778,273.465 161.596,273.873 162.51,273.954 C164.529,273.929 166.139,273.888 169.759,273.781 C170.473,273.759 170.791,273.75 171.187,273.739 C174.655,273.638 176.908,273.593 179.213,273.593 C179.807,273.593 180.285,273.597 181.369,273.608 C182.082,273.615 182.402,273.618 182.802,273.62 C184.784,273.631 186.237,273.602 187.681,273.501 C188.246,273.462 188.838,273.431 189.544,273.402 C189.911,273.387 190.214,273.376 190.872,273.353 C191.168,273.343 191.302,273.338 191.466,273.332 C191.771,273.321 192.165,273.294 192.78,273.245 C192.852,273.239 192.852,273.239 192.924,273.234 C192.906,273.235 193.368,273.198 193.486,273.189 C193.556,273.183 193.627,273.178 193.697,273.172 C193.707,273.175 193.718,273.177 193.728,273.18 C194.064,273.169 194.393,273.127 194.728,273.107 C195.052,273.089 195.199,273.081 195.383,273.069 C195.353,273.071 195.463,273.077 195.67,273.093 C196.147,273.13 196.318,273.139 196.591,273.12 C196.754,273.109 196.912,273.086 197.087,273.04 C197.491,272.954 197.753,272.653 198.164,272.595 C199.583,272.459 198.805,272.534 200.497,272.368 C200.891,272.895 201.492,273.042 202.107,273.094 C202.933,273.083 203.759,273.067 204.586,273.068 L205.49,273.069 C206.732,273.069 206.168,273.069 207.184,273.068 C211.01,273.117 214.835,273.2 218.66,273.323 C221.409,273.404 222.622,273.438 224.147,273.475 C229.71,273.655 235.273,273.606 240.832,273.358 C241.235,273.675 241.687,273.678 242.155,273.685 C245.889,273.378 243.63,273.55 248.935,273.209 L249.307,273.196 C249.77,273.891 250.383,274.157 251.181,274.224 C256.005,274.129 260.826,273.978 265.648,273.812 C266.815,273.773 267.32,273.756 267.961,273.735 C274.329,273.526 280.699,273.329 287.072,273.333 C288.25,273.311 288.807,272.559 289.223,271.56 z" fill="#99D5FF" fill-opacity="0.505"/>
    <path d="M22.112,264.143 C22.155,264.761 22.134,264.945 22.421,265.635 C23.068,267.192 24.561,268.406 25.99,269.221 C27.978,270.355 29.584,271.014 31.86,271.699 C35.704,272.913 39.711,273.358 43.706,273.715 C49.652,273.172 56.05,272.366 61.274,269.221 C63.178,268.075 64.99,266.491 65.152,264.143 C65.42,267.657 69.228,269.568 72.111,270.727 C77.259,272.798 82.802,273.468 88.295,273.826 C94.331,273.431 100.607,272.696 106.116,270.002 C108.507,268.833 111.236,267.056 111.438,264.143 C111.705,267.657 115.513,269.568 118.396,270.727 C123.055,272.601 128.136,273.406 133.12,273.731 C139.144,273.197 145.631,272.408 150.925,269.221 C152.829,268.075 154.641,266.491 154.803,264.143 C155.07,267.657 158.878,269.568 161.762,270.727 C166.617,272.681 171.88,273.431 177.069,273.769 C183.284,273.252 189.991,272.512 195.458,269.221 C197.361,268.075 199.173,266.491 199.335,264.143 C199.603,267.657 203.411,269.568 206.294,270.727 C211.463,272.807 217.025,273.471 222.54,273.83 C228.596,273.435 234.895,272.705 240.422,270.002 C242.813,268.833 245.542,267.056 245.744,264.143 C246.011,267.657 249.819,269.568 252.702,270.727 C258.067,272.886 263.825,273.496 269.543,273.869 C275.692,273.701 281.777,272.663 287.492,270.372 C289.364,269.581 291.563,268.303 292.765,266.591 C292.975,266.292 293.122,265.953 293.3,265.635 L293.446,265.106 C293.737,266.319 294.062,267.523 294.385,268.727 C294.681,269.832 294.799,270.273 294.952,270.861 C295.252,272.015 295.486,272.984 295.686,273.912 L295.696,273.935 L272.523,273.935 L272.53,273.935 L38.366,273.935 L38.373,273.935 L1.216,273.935 L1.225,273.891 C1.232,273.837 1.227,273.781 1.228,273.725 L1.23,273.648 C4.11,273.42 3.999,273.469 7.884,272.805 C8.68,272.669 9.461,272.453 10.25,272.276 C11.554,271.946 12.836,271.53 14.112,271.107 C14.752,270.895 15.368,270.617 15.995,270.372 C18.099,269.484 20.871,267.876 21.803,265.635 C21.935,265.319 21.986,264.976 22.077,264.647 L22.112,264.143 z" fill="#1565C8"/>
    <path d="M296.766,273.89 L296.8,273.935 L296.743,273.935 L296.766,273.9 L296.766,273.89 z" fill="#1565C8"/>
    <g>
      <path d="M131.356,347.386 C118.868,346.083 105.384,339.465 104.423,325.5 L164.423,325.5 C164.423,337.65 150.992,347.5 134.423,347.5 L131.356,347.386 z" fill="#E15555"/>
      <path d="M131.356,347.386 C118.868,346.083 105.384,339.465 104.423,325.5 L164.423,325.5 C164.423,337.65 150.992,347.5 134.423,347.5 L131.356,347.386 z" fill-opacity="0" stroke="#000000" stroke-width="1"/>
    </g>
    <g>
      <path d="M81.39,274.025 C75.146,274.676 68.404,277.985 67.923,284.968 L97.923,284.968 C97.923,278.893 91.208,273.968 82.923,273.968 L81.39,274.025 z" fill="#000000"/>
      <path d="M81.39,274.025 C75.146,274.676 68.404,277.985 67.923,284.968 L97.923,284.968 C97.923,278.893 91.208,273.968 82.923,273.968 L81.39,274.025 z" fill-opacity="0" stroke="#000000" stroke-width="0.5"/>
    </g>
    <g>
      <path d="M163.89,274.025 C157.646,274.676 150.904,277.985 150.423,284.968 L180.423,284.968 C180.423,278.893 173.708,273.968 165.423,273.968 L163.89,274.025 z" fill="#000000"/>
      <path d="M163.89,274.025 C157.646,274.676 150.904,277.985 150.423,284.968 L180.423,284.968 C180.423,278.893 173.708,273.968 165.423,273.968 L163.89,274.025 z" fill-opacity="0" stroke="#000000" stroke-width="0.5"/>
    </g>
    <path d="M51.423,325 C46.177,325 41.923,320.747 41.923,315.5 C41.923,310.253 46.177,306 51.423,306 C56.67,306 60.923,310.253 60.923,315.5 C60.923,320.747 56.67,325 51.423,325 z" fill="#EE9696"/>
    <path d="M201.423,325 C196.177,325 191.923,320.747 191.923,315.5 C191.923,310.253 196.177,306 201.423,306 C206.67,306 210.923,310.253 210.923,315.5 C210.923,320.747 206.67,325 201.423,325 z" fill="#EE9696"/>
  </g>
</svg>
