<?xml version="1.0" encoding="UTF-8"?>
<!DOCTYPE svg PUBLIC "-//W3C//DTD SVG 1.1//EN" "http://www.w3.org/Graphics/SVG/1.1/DTD/svg11.dtd">
<svg version="1.1" xmlns="http://www.w3.org/2000/svg" xmlns:xlink="http://www.w3.org/1999/xlink" x="0" y="0" width="1680" height="450" viewBox="0, 0, 1680, 450">
  <g id="Background">
    <rect x="0" y="0" width="1680" height="450" fill="#3C3B3B"/>
  </g>
  <g id="Layer_1">
    <g>
      <path d="M185.731,311.002 C186.112,319.77 185.925,322.38 188.475,332.17 C194.233,354.272 207.503,371.505 220.2,383.077 C237.869,399.181 252.148,408.524 272.373,418.259 C314.264,438.422 355.966,445.442 399.475,449.282 C407.579,449.997 415.704,449.76 423.818,449.999 L0,449.998 L0.078,449.376 C0.144,448.596 0.098,447.803 0.108,447.017 L0.122,445.916 C25.719,442.681 24.738,443.378 59.264,433.956 C66.346,432.023 73.287,428.952 80.299,426.45 C91.891,421.766 103.278,415.852 114.626,409.845 C120.312,406.835 125.785,402.893 131.365,399.416 C150.059,386.811 174.702,363.984 182.989,332.17 C184.155,327.693 184.611,322.827 185.422,318.155 z" fill="#3A8CC1"/>
      <path d="M330.203,450 C461.694,450 568.289,387.769 568.289,311.004 C568.289,387.769 674.884,450 806.376,450 L330.203,450" fill="#3A8CC1"/>
      <path d="M741.605,450 C873.096,450 979.691,387.769 979.691,311.004 C979.691,387.769 1086.286,450 1217.777,450 L741.605,450" fill="#3A8CC1"/>
      <path d="M1127.052,450 C1258.544,450 1365.139,387.769 1365.139,311.004 C1365.139,387.769 1471.734,450 1603.225,450 L1127.052,450" fill="#3A8CC1"/>
      <path d="M1522.874,450 C1654.365,450 1760.96,387.769 1760.96,311.004 C1760.96,387.769 1867.555,450 1999.046,450 L1522.874,450" fill="#3A8CC1"/>
      <path d="M1935.366,450 C2066.858,450 2173.453,387.769 2173.453,311.004 C2173.453,387.769 2280.048,450 2411.539,450 L1935.366,450" fill="#3A8CC1"/>
      <path d="M2626.96,449.352 L2627.26,449.998 L2626.755,449.998 L2626.961,449.491 z" fill="#3A8CC1"/>
      <path d="M2597.45,324.668 C2600.031,341.884 2602.927,358.974 2605.795,376.072 C2608.43,391.747 2609.475,398.01 2610.833,406.356 C2613.498,422.744 2615.583,436.497 2617.357,449.664 L2617.448,449.998 L2360.805,449.998 C2423.093,449.011 2486.662,438.437 2544.525,399.417 C2561.167,388.195 2580.708,370.055 2591.397,345.74 C2593.262,341.497 2594.565,336.694 2596.149,332.17 z" fill="#3A8CC1"/>
      <path d="M2737.19,439.586 L2737.303,439.882 L2737.199,439.903 z" fill="#3A8CC1"/>
    </g>
  </g>
</svg>
