<?xml version="1.0" encoding="UTF-8"?>
<!DOCTYPE svg PUBLIC "-//W3C//DTD SVG 1.1//EN" "http://www.w3.org/Graphics/SVG/1.1/DTD/svg11.dtd">
<svg version="1.1" xmlns="http://www.w3.org/2000/svg" xmlns:xlink="http://www.w3.org/1999/xlink" x="0" y="0" width="1698" height="439.5" viewBox="0, 0, 1698, 439.5">
  <g id="Background">
    <rect x="0" y="0" width="1698" height="439.5" fill="#000000" fill-opacity="0"/>
  </g>
  <g id="Layer_3">
    <path d="M324.755,291.033 C323.771,259.361 298.249,215.235 286.062,191.804 C275.577,171.612 216.938,25.614 245.165,4.121 C243.299,5.516 116.024,102.355 63.865,186.976 L54.674,203.345 C45.484,219.714 -7.204,320.612 67.578,394.852 C100.183,427.221 135.801,435.379 190.904,435.379 C219.183,435.38 328.455,410.658 324.755,291.033 z" fill="#2390DE"/>
    <path d="M317.26,274.44 C318.963,274.677 318.197,274.574 319.558,274.754 C322.107,275.052 320.725,274.804 322.573,274.953 C324.916,285.886 325.123,297.306 324.314,308.415 C322.439,334.169 314.874,359.646 298.818,380.486 C281.906,402.438 258.123,417.725 232.365,426.913 C219.234,431.597 204.836,435.192 190.84,435.379 C135.737,435.379 100.162,427.583 67.558,394.852 C52.025,379.313 39.883,360.199 33.521,339.017 C27.492,319.15 26.88,297.79 29.39,277.269 L29.395,277.27 C32.069,277.478 34.772,277.469 37.744,277.267 C37.89,277.242 38.044,277.245 38.182,277.192 C38.923,276.829 38.635,277.052 39.098,276.593 C40.743,276.523 40.004,276.555 41.314,276.499 C42.708,276.439 42.186,276.462 42.88,276.432 C43.242,276.923 43.831,277.046 44.397,277.103 C48.395,277.086 52.389,276.889 56.381,276.666 C60.208,276.365 58.153,276.475 62.549,276.383 C62.973,276.886 63.582,276.995 64.199,277.01 C67.025,276.79 69.809,276.73 74.146,276.747 C74.626,276.749 75.011,276.751 75.875,276.755 C77.549,276.638 79.168,277.143 80.812,276.807 C82.115,276.829 81.392,276.817 82.979,276.843 C83.835,276.705 83.408,276.843 84.245,276.393 C94.818,276.677 105.395,276.702 115.97,276.694 C117.792,276.692 119.248,276.689 122.529,276.683 C127.573,276.673 129.817,276.67 132.621,276.67 C133.238,276.686 133.664,276.412 134.066,275.98 C135.354,276.018 136.643,276.057 137.931,276.097 C142.187,276.226 146.442,276.356 150.698,276.465 C158.214,276.659 164.479,276.757 170.517,276.757 C171.077,276.761 171.586,276.539 171.977,276.143 C182.251,276.075 176.752,276.176 188.475,275.779 C188.778,276.715 189.596,277.123 190.51,277.204 C192.529,277.179 194.139,277.138 197.759,277.031 C198.473,277.009 198.791,277 199.187,276.989 C202.655,276.888 204.908,276.843 207.213,276.843 C207.807,276.843 208.285,276.847 209.369,276.858 C210.082,276.865 210.402,276.868 210.802,276.87 C212.784,276.881 214.237,276.852 215.681,276.751 C216.246,276.712 216.838,276.681 217.544,276.652 C217.911,276.637 218.214,276.626 218.872,276.603 C219.168,276.593 219.302,276.588 219.466,276.582 C219.771,276.571 220.165,276.544 220.78,276.495 C220.852,276.489 220.852,276.489 220.924,276.484 C220.906,276.485 221.368,276.448 221.486,276.439 C221.556,276.433 221.627,276.428 221.697,276.422 C221.707,276.425 221.718,276.427 221.728,276.43 C222.064,276.419 222.393,276.377 222.728,276.357 C223.052,276.339 223.199,276.331 223.383,276.319 C223.353,276.321 223.463,276.327 223.67,276.343 C224.147,276.38 224.318,276.389 224.591,276.37 C224.754,276.359 224.912,276.336 225.087,276.29 C225.491,276.204 225.753,275.903 226.164,275.845 C227.583,275.709 226.805,275.784 228.497,275.618 C228.891,276.145 229.492,276.292 230.107,276.344 C230.933,276.333 231.759,276.317 232.586,276.318 L233.49,276.319 C234.732,276.319 234.168,276.319 235.184,276.318 C239.01,276.367 242.835,276.45 246.66,276.573 C249.409,276.654 250.622,276.688 252.147,276.725 C257.71,276.905 263.273,276.856 268.832,276.608 C269.235,276.925 269.687,276.928 270.155,276.935 C273.889,276.628 271.63,276.8 276.935,276.459 L277.307,276.446 C277.77,277.141 278.383,277.407 279.181,277.474 C284.005,277.379 288.826,277.228 293.648,277.062 C294.815,277.023 295.32,277.006 295.961,276.985 C302.329,276.776 308.699,276.579 315.072,276.583 C316.25,276.561 316.807,275.809 317.223,274.81 z" fill="#99D5FF" fill-opacity="0.505"/>
    <path d="M50.112,267.393 C50.155,268.011 50.134,268.195 50.421,268.885 C51.068,270.442 52.561,271.656 53.99,272.471 C55.978,273.605 57.584,274.264 59.86,274.949 C63.704,276.163 67.711,276.608 71.706,276.965 C77.652,276.422 84.05,275.616 89.274,272.471 C91.178,271.325 92.99,269.741 93.152,267.393 C93.42,270.907 97.228,272.818 100.111,273.977 C105.259,276.048 110.802,276.718 116.295,277.076 C122.331,276.681 128.607,275.946 134.116,273.252 C136.507,272.083 139.236,270.306 139.438,267.393 C139.705,270.907 143.513,272.818 146.396,273.977 C151.055,275.851 156.136,276.656 161.12,276.981 C167.144,276.447 173.631,275.658 178.925,272.471 C180.829,271.325 182.641,269.741 182.803,267.393 C183.07,270.907 186.878,272.818 189.762,273.977 C194.617,275.931 199.88,276.681 205.069,277.019 C211.284,276.502 217.991,275.762 223.458,272.471 C225.361,271.325 227.173,269.741 227.335,267.393 C227.603,270.907 231.411,272.818 234.294,273.977 C239.463,276.057 245.025,276.721 250.54,277.08 C256.596,276.685 262.895,275.955 268.422,273.252 C270.813,272.083 273.542,270.306 273.744,267.393 C274.011,270.907 277.819,272.818 280.702,273.977 C286.067,276.136 291.825,276.746 297.543,277.119 C303.692,276.951 309.777,275.913 315.492,273.622 C317.364,272.831 319.563,271.553 320.765,269.841 C320.975,269.542 321.122,269.203 321.3,268.885 L321.446,268.356 C321.737,269.569 322.062,270.773 322.385,271.977 C322.681,273.082 322.799,273.523 322.952,274.111 C323.252,275.265 323.486,276.234 323.686,277.162 L323.696,277.185 L300.523,277.185 L300.53,277.185 L66.366,277.185 L66.373,277.185 L29.216,277.185 L29.225,277.141 C29.232,277.087 29.227,277.031 29.228,276.975 L29.23,276.898 C32.11,276.67 31.999,276.719 35.884,276.055 C36.68,275.919 37.461,275.703 38.25,275.526 C39.554,275.196 40.836,274.78 42.112,274.357 C42.752,274.145 43.368,273.867 43.995,273.622 C46.099,272.734 48.871,271.126 49.803,268.885 C49.935,268.569 49.986,268.226 50.077,267.897 L50.112,267.393 z" fill="#1565C8"/>
    <path d="M324.766,277.14 L324.8,277.185 L324.743,277.185 L324.766,277.15 L324.766,277.14 z" fill="#1565C8"/>
    <text transform="matrix(1, 0, 0, 1, 1298.832, 219.75)">
      <tspan x="-949.136" y="193.5" font-family="Lato-Light" font-size="512" fill="#036A92">Glukit</tspan>
    </text>
  </g>
</svg>
