<?xml version="1.0" encoding="UTF-8"?>
<!DOCTYPE svg PUBLIC "-//W3C//DTD SVG 1.1//EN" "http://www.w3.org/Graphics/SVG/1.1/DTD/svg11.dtd">
<svg version="1.1" xmlns="http://www.w3.org/2000/svg" xmlns:xlink="http://www.w3.org/1999/xlink" x="0" y="0" width="1074" height="300" viewBox="0, 0, 1074, 300">
  <g id="Background">
    <rect x="0" y="0" width="1074" height="300" fill="#000000" fill-opacity="0"/>
  </g>
  <g id="boat">
    <path d="M103.42,228.405 C224.968,172.634 232.825,151.684 243.723,143.814" fill-opacity="0" stroke="#19865E" stroke-width="1"/>
    <path d="M54.903,245.615 L55.004,245.824" fill-opacity="0" stroke="#AA6E00" stroke-width="1" stroke-linecap="square"/>
    <g>
      <path d="M52.519,243.865 C51.586,244.585 49.844,245.481 48.665,245.907 C53.025,255.398 56.275,269.059 64.108,275.435 C65.711,276.272 70.871,276.379 74.45,276.026 C99.543,272.715 240.414,210.427 255.089,186.162 C250.674,172.182 247.359,158.006 243.723,143.814 C199.472,197.297 120.233,223.254 55.031,245.961 C54.763,245.409 54.545,244.829 54.226,244.305 C53.798,244.137 53.361,243.924 52.898,243.782" fill="url(#Gradient_1)"/>
      <path d="M52.519,243.865 C51.586,244.585 49.844,245.481 48.665,245.907 C53.025,255.398 56.275,269.059 64.108,275.435 C65.711,276.272 70.871,276.379 74.45,276.026 C99.543,272.715 240.414,210.427 255.089,186.162 C250.674,172.182 247.359,158.006 243.723,143.814 C199.472,197.297 120.233,223.254 55.031,245.961 C54.763,245.409 54.545,244.829 54.226,244.305 C53.798,244.137 53.361,243.924 52.898,243.782" fill-opacity="0" stroke="#19865E" stroke-width="1" stroke-linecap="square"/>
    </g>
    <path d="M95.379,228.931 L81.834,197.88 L91.256,198.546" fill-opacity="0" stroke="#19865E" stroke-width="1"/>
    <g>
      <path d="M103.42,228.405 C98.944,216.921 96.073,211.021 91.256,198.546 L125.494,181.882 L137.666,214.624" fill="#DFF8E3"/>
      <path d="M103.42,228.405 C98.944,216.921 96.073,211.021 91.256,198.546 L125.494,181.882 L137.666,214.624" fill-opacity="0" stroke="#19865E" stroke-width="1" stroke-linecap="square"/>
    </g>
    <g>
      <path d="M114.936,190.755 C116.429,194.384 117.68,197.867 119.067,201.528 C121.558,200.726 123.669,199.993 126.097,199.231 C124.22,195.374 123.19,191.946 121.262,188.117 C119.274,188.97 117.175,189.684 115.388,190.555" fill="#FFFFFF"/>
      <path d="M114.936,190.755 C116.429,194.384 117.68,197.867 119.067,201.528 C121.558,200.726 123.669,199.993 126.097,199.231 C124.22,195.374 123.19,191.946 121.262,188.117 C119.274,188.97 117.175,189.684 115.388,190.555" fill-opacity="0" stroke="#1C4720" stroke-width="1" stroke-linecap="square"/>
    </g>
    <g>
      <path d="M105.324,196.316 C106.745,199.77 108.203,203.064 109.524,206.548 C111.894,205.784 114.172,203.97 116.484,203.244 C114.697,199.573 113.475,196.649 111.64,193.005 C109.748,193.816 107.053,195.545 105.352,196.373" fill="#FFFFFF"/>
      <path d="M105.324,196.316 C106.745,199.77 108.203,203.064 109.524,206.548 C111.894,205.784 114.172,203.97 116.484,203.244 C114.697,199.573 113.475,196.649 111.64,193.005 C109.748,193.816 107.053,195.545 105.352,196.373" fill-opacity="0" stroke="#1C4720" stroke-width="0.952" stroke-linecap="square"/>
    </g>
    <g>
      <path d="M103.42,228.405 L95.379,228.931 L70.401,240.774" fill="url(#Gradient_2)"/>
      <path d="M103.42,228.405 L95.379,228.931 L70.401,240.774" fill-opacity="0" stroke="#19865E" stroke-width="1"/>
    </g>
    <path d="M81.834,197.88 L116.327,181.092 L125.494,181.882" fill-opacity="0" stroke="#19865E" stroke-width="1"/>
  </g>
  <g id="glukitLine">
    <path d="M-0.349,238.023 L0.678,238.023 L11.844,238.023 L23.011,245.645 L34.177,249.456 L45.344,257.078 L56.511,260.889 L67.677,264.7 L78.844,268.511 L90.01,268.511 L101.177,268.511 L112.343,264.7 L123.51,257.078 L134.676,249.456 L145.843,238.023 L157.01,226.589 L168.176,218.967 L179.343,211.345 L190.509,203.723 L201.713,196.101 L212.842,192.29 L224.009,184.667 L235.176,180.856 L246.342,180.856 L257.509,177.045 L268.675,173.234 L279.842,169.423 L291.008,169.423 L302.175,165.612 L313.342,165.612 L324.508,165.612 L335.675,165.612 L346.841,165.612 L358.008,165.612 L369.174,169.423 L380.341,169.423 L391.508,173.234 L402.674,173.234 L413.841,177.045 L425.007,180.856 L436.174,184.667 L447.378,188.478 L458.507,188.478 L469.673,192.29 L480.84,196.101 L492.007,199.912 L503.173,207.534 L514.34,215.156 L525.506,218.967 L536.673,215.156 L547.839,211.345 L559.006,203.723 L570.173,199.912 L581.339,199.912 L592.506,196.101 L603.672,196.101 L614.839,203.723 L626.005,203.723 L637.172,199.912 L648.339,196.101 L659.505,192.29 L670.672,184.667 L681.838,177.045 L693.005,165.612 L704.171,157.99 L715.338,150.368 L726.504,142.745 L737.671,138.934 L748.838,135.123 L760.004,131.312 L771.171,119.879 L782.337,119.879 L793.504,123.69 L804.67,138.934 L815.837,165.612 L827.004,192.29 L838.17,234.211 L849.337,260.889 L860.503,276.133 L871.67,283.756 L882.836,291.378 L894.003,299 L905.169,299 L916.336,299 L927.503,295.189 L938.669,291.378 L949.836,287.567 L961.002,279.945 L972.169,276.133 L983.335,268.511 L994.502,264.7 L1005.669,260.889 L1016.835,257.078 L1028.002,253.267 L1039.168,245.645 L1050.335,234.211 L1061.501,222.778 L1072.631,211.345 L1074,209.943" fill-opacity="0" stroke="#2390DE" stroke-width="1.5"/>
  </g>
  <g id="sailor">
    <path d="M0.607,156.966 L3.228,156.03 L14.529,156.03 L25.83,156.03 L37.131,160.064 L48.432,168.131 L59.733,176.198 L71.035,180.231 L82.336,184.265 L93.637,188.299 L104.938,192.332 L116.239,192.332 L127.54,192.332 L138.841,192.332 L150.142,200.399 L161.443,204.433 L172.745,208.466 L184.046,212.5 L195.347,216.533 L206.648,220.567 L217.949,224.6 L229.25,228.634 L240.551,228.634 L251.852,232.667 L263.153,232.667 L274.455,232.667 L285.756,232.667 L297.057,232.667 L308.358,232.667 L319.659,228.634 L330.96,224.6 L342.261,216.533 L353.562,212.5 L364.863,212.5 L387.466,216.533 L398.767,216.533 L410.068,208.466 L421.331,204.433 L432.632,204.433 L443.934,204.433 L455.272,204.433 L466.536,208.466 L477.837,212.5 L489.138,212.5 L500.439,212.5 L511.74,212.5 L523.041,212.5 L534.342,216.533 L545.644,216.533 L556.945,224.6 L568.246,224.6 L579.547,228.634 L590.848,228.634 L602.149,228.634 L613.45,232.667 L624.751,232.667 L636.052,236.701 L647.354,236.701 L658.655,236.701 L669.956,236.701 L681.257,236.701 L692.558,240.734 L703.859,240.734 L715.16,240.734 L726.461,240.734 L737.763,240.734 L749.064,244.768 L760.365,244.768 L771.666,244.768 L782.967,248.801 L794.268,248.801 L805.569,252.835 L816.87,252.835 L828.171,256.868 L839.472,256.868 L850.774,256.868 L862.075,256.868 L873.376,252.835 L884.677,256.868 L895.978,260.902 L907.279,260.902 L918.58,260.902 L929.881,256.868 L941.182,256.868 L952.484,252.835 L963.785,252.835 L975.086,252.835 L986.387,256.868 L997.688,252.835 L1008.989,248.801 L1020.29,252.835 L1031.591,256.868 L1042.893,256.868 L1054.194,256.868 L1065.495,260.902 L1074.175,264" fill-opacity="0" stroke="#33AD33" stroke-width="3" stroke-opacity="0.507" stroke-dasharray="6,24"/>
  </g>
  <g id="overlay">
    <g>
      <path d="M48.432,168.131 C100.816,161.511 168.684,154.842 286.614,104.544" fill-opacity="0" stroke="#33AD33" stroke-width="5" stroke-opacity="0.689"/>
      <path d="M288.769,109.495 L299.817,98.797 L284.459,99.592 M286.614,104.544 L299.817,98.797" fill-opacity="0" stroke="#33AD33" stroke-width="5" stroke-opacity="0.689"/>
    </g>
    <text transform="matrix(1, 0, 0, 1, 557.763, 88.627)">
      <tspan x="-323.937" y="-8.5" font-family="Lato-Light" font-size="36" fill="#CD0000">See how you compare to your steady sailor </tspan>
    </text>
  </g>
  <defs>
    <linearGradient id="Gradient_1" gradientUnits="userSpaceOnUse" x1="41.831" y1="235.973" x2="41.831" y2="286.674" gradientTransform="matrix(0.899, -0.438, 0.438, 0.899, 0, 0)">
      <stop offset="0" stop-color="#97EC00"/>
      <stop offset="1" stop-color="#0C8D1E"/>
    </linearGradient>
    <linearGradient id="Gradient_2" gradientUnits="userSpaceOnUse" x1="-25.104" y1="247.303" x2="-25.104" y2="250.501" gradientTransform="matrix(0.899, -0.438, 0.438, 0.899, 0, 0)">
      <stop offset="0" stop-color="#AAD400"/>
      <stop offset="1" stop-color="#006E10"/>
    </linearGradient>
  </defs>
</svg>
