<?xml version="1.0" encoding="UTF-8"?>
<!DOCTYPE svg PUBLIC "-//W3C//DTD SVG 1.1//EN" "http://www.w3.org/Graphics/SVG/1.1/DTD/svg11.dtd">
<svg version="1.1" xmlns="http://www.w3.org/2000/svg" xmlns:xlink="http://www.w3.org/1999/xlink" x="0" y="0" width="100" height="100" viewBox="0, 0, 100, 100">
  <g id="Background">
    <rect x="0" y="0" width="100" height="100" fill="#000000" fill-opacity="0"/>
  </g>
  <g id="Layer_1">
    <path d="M50,0 C77.614,0 100,22.386 100,50 C100,77.614 77.614,100 50,100 C22.386,100 0,77.614 0,50 C0,22.386 22.386,0 50,0 z M60.297,14.938 L60.296,14.939 C49.232,23.451 38.671,33.073 30.818,44.67 L29.324,47.332 C27.041,51.533 25.499,56.119 25.135,60.908 C25.742,60.86 26.346,60.788 26.943,60.672 C27.175,60.632 27.403,60.569 27.633,60.517 C28.013,60.42 28.386,60.299 28.758,60.175 C28.944,60.113 29.124,60.031 29.307,59.96 C29.919,59.7 30.727,59.229 30.999,58.574 C31.037,58.481 31.052,58.381 31.079,58.284 L31.089,58.137 C31.101,58.318 31.095,58.372 31.179,58.574 C31.368,59.029 31.803,59.384 32.219,59.623 C32.798,59.955 33.266,60.147 33.929,60.348 C36.48,60.899 35.292,60.73 37.482,60.931 C39.413,60.592 42.968,60.55 43.63,58.137 C44.249,60.476 48.46,60.892 50.373,60.963 C52.398,60.767 56.423,60.662 57.117,58.137 C57.675,60.333 61.647,60.881 63.435,60.947 C65.364,60.739 69.098,60.518 69.752,58.137 C70.532,59.747 71.456,60.043 73.11,60.491 C72.475,55.044 69.328,50.258 66.947,45.455 C64.18,39.885 62.114,33.741 60.545,27.742 C59.739,24.657 57.609,17.863 60.296,14.939 L60.297,14.938 L60.297,14.938 z" fill="#FFFFFF"/>
  </g>
</svg>
